<svg xmlns="http://www.w3.org/2000/svg" width="568.013" height="568.013" viewBox="0 0 568.013 568.013"><path d="M526.894 42.393l-1.275-1.275c-54.825-54.825-144.075-54.825-198.9 0l-285.6 285.6c-54.825 54.826-54.825 144.076 0 198.9l1.275 1.275c54.825 54.825 144.075 54.825 198.9 0l285.6-285.6c54.824-54.825 54.824-144.075 0-198.9zm-24.225 175.95L218.343 502.67c-42.075 42.074-109.65 42.074-151.725 0l-1.276-1.276c-42.075-42.075-42.075-109.65 0-151.725L349.67 65.342c42.073-42.075 109.648-42.075 151.724 0l1.275 1.275c42.073 42.075 42.073 109.65 0 151.725z"/><path d="M458.044 187.743c-5.1-5.1-14.025-5.1-19.125 0l-7.65 7.65-22.95-22.95 6.374-6.375-11.475-11.475-6.376 6.375-22.95-22.95 7.65-7.65c5.1-5.1 5.1-14.025 0-19.125L364.97 94.668c-5.102-5.1-14.026-5.1-19.126 0l-40.8 40.8c-5.1 5.1-5.1 14.025 0 19.125l16.574 16.575c5.1 5.1 14.025 5.1 19.125 0l8.926-8.925 22.948 22.95-6.375 6.375 11.476 11.475 6.374-6.375 22.95 22.95-7.65 7.65c-5.1 5.1-5.1 14.025 0 19.125l16.575 16.575c5.1 5.1 14.023 5.1 19.124 0l40.8-40.8c5.1-5.1 5.1-14.025 0-19.125l-17.85-15.3zM246.394 399.394c-5.1-5.1-14.025-5.1-19.125 0l-8.926 8.925-22.95-24.226 6.375-6.375-11.476-11.476-6.375 6.375-22.95-22.95 8.924-8.926c5.1-5.1 5.1-14.025 0-19.125l-16.575-16.576c-5.1-5.1-14.026-5.1-19.126 0l-40.8 40.8c-5.1 5.1-5.1 14.025 0 19.125l16.575 16.574c5.1 5.1 14.024 5.1 19.124 0l7.65-7.65 22.95 22.95-6.375 6.375 11.474 11.474 6.375-6.375 22.95 22.95-7.65 7.65c-5.1 5.1-5.1 14.023 0 19.124l16.574 16.575c5.1 5.1 14.025 5.1 19.125 0l40.8-40.802c5.1-5.1 5.1-14.024 0-19.125l-16.576-15.3z"/></svg>
